<svg xmlns="http://www.w3.org/2000/svg" viewBox="0 0 500 500"><defs><style>.cls-1{fill:#22177a;opacity:0.99;}.cls-2{fill:none;stroke:#231f20;stroke-miterlimit:10;}.cls-3{fill:#fff;}</style></defs><g id="Layer_2" data-name="Layer 2"><g id="Layer_1-2" data-name="Layer 1"><rect class="cls-1" width="500" height="500" rx="50"/><path class="cls-2" d="M140.57,254.33h0Z"/><path class="cls-2" d="M143.15,205c-.42,0-.84,0-1.27,0l-1.27,0Z"/><path class="cls-3" d="M448.74,131a24.66,24.66,0,0,1-24.67,24.67H141.88A24.67,24.67,0,0,0,140.57,205h0l1.27,0c.43,0,.85,0,1.27,0H247.91v0a24.67,24.67,0,0,1,24.67,24.67v79.12a24.67,24.67,0,0,1-49.34,0V266.68a12.35,12.35,0,0,0-12.34-12.34H140.57a74,74,0,0,1,1.31-148H424.07A24.67,24.67,0,0,1,448.74,131Z"/><rect class="cls-3" x="223.24" y="349.57" width="49.34" height="70.58" rx="24.67"/></g></g></svg>