<svg width="110" height="40" viewBox="0 0 110 40" fill="none" xmlns="http://www.w3.org/2000/svg">
<path d="M44.488 16H47.416V28H44.488L44.356 26.512C44.028 27.048 43.592 27.484 43.048 27.82C42.512 28.148 41.876 28.312 41.14 28.312C40.252 28.312 39.42 28.144 38.644 27.808C37.868 27.472 37.184 27.008 36.592 26.416C36.008 25.824 35.548 25.14 35.212 24.364C34.884 23.588 34.72 22.756 34.72 21.868C34.72 21.012 34.876 20.208 35.188 19.456C35.508 18.704 35.952 18.044 36.52 17.476C37.088 16.908 37.744 16.464 38.488 16.144C39.232 15.824 40.032 15.664 40.888 15.664C41.68 15.664 42.388 15.84 43.012 16.192C43.644 16.544 44.18 16.992 44.62 17.536L44.488 16ZM41.068 25.492C41.692 25.492 42.244 25.336 42.724 25.024C43.204 24.712 43.58 24.292 43.852 23.764C44.124 23.228 44.26 22.64 44.26 22C44.26 21.352 44.124 20.764 43.852 20.236C43.58 19.7 43.2 19.276 42.712 18.964C42.232 18.652 41.684 18.496 41.068 18.496C40.452 18.496 39.888 18.656 39.376 18.976C38.872 19.288 38.468 19.708 38.164 20.236C37.868 20.764 37.72 21.352 37.72 22C37.72 22.648 37.872 23.236 38.176 23.764C38.48 24.292 38.884 24.712 39.388 25.024C39.9 25.336 40.46 25.492 41.068 25.492ZM60.9992 20.416V28H58.0712V21.184C58.0712 20.712 57.9552 20.284 57.7232 19.9C57.4912 19.508 57.1792 19.2 56.7872 18.976C56.4032 18.744 55.9752 18.628 55.5032 18.628C55.0312 18.628 54.5992 18.744 54.2072 18.976C53.8232 19.2 53.5152 19.508 53.2832 19.9C53.0592 20.284 52.9472 20.712 52.9472 21.184V28H50.0192L50.0072 16H52.9352L52.9472 17.068C53.3552 16.636 53.8432 16.296 54.4112 16.048C54.9792 15.792 55.5912 15.664 56.2472 15.664C57.1192 15.664 57.9152 15.88 58.6352 16.312C59.3552 16.736 59.9272 17.308 60.3512 18.028C60.7832 18.74 60.9992 19.536 60.9992 20.416ZM72.2596 16H75.1876V28.228C75.1876 29.092 75.0116 29.876 74.6596 30.58C74.3076 31.292 73.8276 31.9 73.2196 32.404C72.6116 32.916 71.9156 33.308 71.1316 33.58C70.3476 33.86 69.5236 34 68.6596 34C67.8196 34 67.0116 33.828 66.2356 33.484C65.4596 33.14 64.7716 32.668 64.1716 32.068C63.5796 31.476 63.1276 30.8 62.8156 30.04L65.4916 28.828C65.6516 29.268 65.8916 29.652 66.2116 29.98C66.5396 30.316 66.9156 30.576 67.3396 30.76C67.7636 30.952 68.2036 31.048 68.6596 31.048C69.1236 31.048 69.5676 30.984 69.9916 30.856C70.4236 30.728 70.8116 30.54 71.1556 30.292C71.4996 30.052 71.7676 29.756 71.9596 29.404C72.1596 29.06 72.2596 28.668 72.2596 28.228V26.536C71.8836 27.064 71.4116 27.492 70.8436 27.82C70.2756 28.148 69.6196 28.312 68.8756 28.312C68.0116 28.312 67.2036 28.148 66.4516 27.82C65.6996 27.492 65.0356 27.04 64.4596 26.464C63.8916 25.88 63.4436 25.208 63.1156 24.448C62.7956 23.688 62.6356 22.872 62.6356 22C62.6356 21.128 62.7956 20.312 63.1156 19.552C63.4436 18.792 63.8916 18.124 64.4596 17.548C65.0356 16.964 65.6996 16.508 66.4516 16.18C67.2036 15.852 68.0116 15.688 68.8756 15.688C69.6196 15.688 70.2756 15.852 70.8436 16.18C71.4116 16.5 71.8836 16.924 72.2596 17.452V16ZM68.9116 25.492C69.5276 25.492 70.0716 25.336 70.5436 25.024C71.0236 24.704 71.3996 24.28 71.6716 23.752C71.9436 23.216 72.0796 22.632 72.0796 22C72.0796 21.36 71.9396 20.776 71.6596 20.248C71.3876 19.72 71.0116 19.296 70.5316 18.976C70.0596 18.656 69.5196 18.496 68.9116 18.496C68.3116 18.496 67.7636 18.656 67.2676 18.976C66.7716 19.288 66.3756 19.708 66.0796 20.236C65.7836 20.764 65.6356 21.352 65.6356 22C65.6356 22.648 65.7836 23.236 66.0796 23.764C66.3756 24.292 66.7716 24.712 67.2676 25.024C67.7636 25.336 68.3116 25.492 68.9116 25.492ZM78.2744 28V10H81.2024V28H78.2744ZM89.3794 28.312C88.2754 28.312 87.2674 28.028 86.3554 27.46C85.4514 26.892 84.7274 26.128 84.1834 25.168C83.6474 24.208 83.3794 23.148 83.3794 21.988C83.3794 21.116 83.5354 20.3 83.8474 19.54C84.1594 18.772 84.5874 18.1 85.1314 17.524C85.6834 16.94 86.3234 16.484 87.0514 16.156C87.7794 15.828 88.5554 15.664 89.3794 15.664C90.3154 15.664 91.1714 15.864 91.9474 16.264C92.7314 16.656 93.3954 17.196 93.9394 17.884C94.4834 18.572 94.8794 19.356 95.1274 20.236C95.3754 21.116 95.4314 22.036 95.2954 22.996H86.5234C86.6354 23.444 86.8194 23.848 87.0754 24.208C87.3314 24.56 87.6554 24.844 88.0474 25.06C88.4394 25.268 88.8834 25.376 89.3794 25.384C89.8914 25.392 90.3554 25.272 90.7714 25.024C91.1954 24.768 91.5474 24.424 91.8274 23.992L94.8154 24.688C94.3274 25.752 93.5994 26.624 92.6314 27.304C91.6634 27.976 90.5794 28.312 89.3794 28.312ZM86.4274 20.8H92.3314C92.2434 20.32 92.0554 19.888 91.7674 19.504C91.4874 19.112 91.1394 18.8 90.7234 18.568C90.3074 18.336 89.8594 18.22 89.3794 18.22C88.8994 18.22 88.4554 18.336 88.0474 18.568C87.6394 18.792 87.2914 19.1 87.0034 19.492C86.7234 19.876 86.5314 20.312 86.4274 20.8ZM106.567 10H109.495V28H106.567V26.5C106.183 27.036 105.699 27.472 105.115 27.808C104.531 28.144 103.855 28.312 103.087 28.312C102.215 28.312 101.399 28.148 100.639 27.82C99.8787 27.492 99.2067 27.04 98.6227 26.464C98.0467 25.88 97.5947 25.208 97.2667 24.448C96.9387 23.688 96.7747 22.872 96.7747 22C96.7747 21.128 96.9387 20.312 97.2667 19.552C97.5947 18.792 98.0467 18.124 98.6227 17.548C99.2067 16.964 99.8787 16.508 100.639 16.18C101.399 15.852 102.215 15.688 103.087 15.688C103.855 15.688 104.531 15.856 105.115 16.192C105.699 16.52 106.183 16.956 106.567 17.5V10ZM103.123 25.492C103.747 25.492 104.299 25.336 104.779 25.024C105.259 24.712 105.635 24.292 105.907 23.764C106.179 23.228 106.315 22.64 106.315 22C106.315 21.352 106.179 20.764 105.907 20.236C105.635 19.7 105.255 19.276 104.767 18.964C104.287 18.652 103.739 18.496 103.123 18.496C102.507 18.496 101.943 18.656 101.431 18.976C100.927 19.288 100.523 19.708 100.219 20.236C99.9227 20.764 99.7747 21.352 99.7747 22C99.7747 22.648 99.9267 23.236 100.231 23.764C100.535 24.292 100.939 24.712 101.443 25.024C101.955 25.336 102.515 25.492 103.123 25.492Z" fill="black"/>
<path d="M68.3311 3.07723C68.3312 3.48127 68.2516 3.88139 68.0967 4.25469C67.9419 4.628 67.7149 4.96718 67.4287 5.25284C67.1425 5.5385 66.8027 5.76505 66.4288 5.91953C66.0548 6.074 65.6541 6.15339 65.2494 6.15314H9.32627C8.52125 6.15029 7.74706 6.46207 7.16932 7.02181C6.59157 7.58154 6.25613 8.34478 6.23475 9.14827C6.21337 9.95175 6.50775 10.7317 7.05491 11.3213C7.60208 11.9108 8.35859 12.2632 9.16263 12.3031H9.16834C9.22066 12.3031 9.27395 12.3031 9.32627 12.3031C9.3786 12.3031 9.43188 12.3031 9.48516 12.3031H22.5692C22.9739 12.3031 23.3746 12.3827 23.7485 12.5373C24.1224 12.6919 24.4621 12.9185 24.7483 13.2043C25.0345 13.49 25.2614 13.8292 25.4163 14.2025C25.5712 14.5758 25.6509 14.9759 25.6509 15.3799V25.2498C25.6509 26.0659 25.3262 26.8485 24.7483 27.4255C24.1704 28.0025 23.3865 28.3267 22.5692 28.3267C21.7519 28.3267 20.9681 28.0025 20.3901 27.4255C19.8122 26.8485 19.4875 26.0659 19.4875 25.2498V19.9985C19.4875 19.5906 19.3253 19.1993 19.0364 18.9107C18.7476 18.6221 18.3558 18.4599 17.9472 18.4596H9.32627C9.27204 18.4596 9.21686 18.4596 9.16263 18.4596C6.71094 18.438 4.36829 17.4448 2.65004 15.6986C0.931778 13.9524 -0.0213382 11.5962 0.000362607 9.14831C0.0220634 6.70045 1.0168 4.36147 2.76575 2.64589C4.5147 0.930321 6.87459 -0.0213048 9.32627 0.000362039H65.2494C66.0667 0.000362039 66.8505 0.324531 67.4285 0.901554C68.0064 1.47858 68.3311 2.26119 68.3311 3.07723Z" fill="#22177A"/>
<path d="M23.3026 30.3349H21.8346C20.5383 30.3349 19.4874 31.3841 19.4874 32.6784V36.7926C19.4874 38.0869 20.5383 39.1361 21.8346 39.1361H23.3026C24.5989 39.1361 25.6498 38.0869 25.6498 36.7926V32.6784C25.6498 31.3841 24.5989 30.3349 23.3026 30.3349Z" fill="#22177A"/>
</svg>
