<svg xmlns="http://www.w3.org/2000/svg" viewBox="0 0 48 48" id="logout">
  <path d="m42.71 24.71-8.76 8.76c-.2.2-.45.29-.71.29s-.51-.1-.71-.29a.996.996 0 0 1 0-1.41l7.05-7.05h-27.1c-.55 0-1-.45-1-1s.45-1 1-1h27.11l-7.05-7.05a.996.996 0 1 1 1.41-1.41l8.76 8.76c.39.39.39 1.02 0 1.41ZM27 32c-.55 0-1 .45-1 1v10c0 .55-.45 1-1 1H8c-.55 0-1-.45-1-1V5c0-.55.45-1 1-1h17c.55 0 1 .45 1 1v10c0 .55.45 1 1 1s1-.45 1-1V5c0-1.65-1.35-3-3-3H8C6.35 2 5 3.35 5 5v38c0 1.65 1.35 3 3 3h17c1.65 0 3-1.35 3-3V33c0-.55-.45-1-1-1"></path>
</svg>
